<?xml version="1.0" encoding="UTF-8"?>
<svg version="1.1" xmlns="http://www.w3.org/2000/svg" width="256" height="256">
<path d="M0 0 C14.19 0 28.38 0 43 0 C43 25.74 43 51.48 43 78 C16.93 78 -9.14 78 -36 78 C-36 64.14 -36 50.28 -36 36 C-24.12 36 -12.24 36 0 36 C0 24.12 0 12.24 0 0 Z " fill="#645FCE" transform="translate(58,89)"/>
<path d="M0 0 C14.19 0 28.38 0 43 0 C43 11.88 43 23.76 43 36 C28.81 36 14.62 36 0 36 C0 24.12 0 12.24 0 0 Z " fill="#69E9F5" transform="translate(58,89)"/>
<path d="M0 0 C1.32 0 2.64 0 4 0 C4.33 2.31 4.66 4.62 5 7 C5.7425 6.484375 6.485 5.96875 7.25 5.4375 C10 4 10 4 12.3125 4.3125 C12.869375 4.539375 13.42625 4.76625 14 5 C14.66 3.68 15.32 2.36 16 1 C18.375 0.8125 18.375 0.8125 21 1 C21.66 1.99 22.32 2.98 23 4 C24.32520503 4.68268138 25.65812182 5.3507041 27 6 C27.495 6.99 27.495 6.99 28 8 C28 7.01 28 6.02 28 5 C33.41538462 3.76923077 33.41538462 3.76923077 36.375 4.9375 C36.91125 5.288125 37.4475 5.63875 38 6 C38.33 5.67 38.66 5.34 39 5 C41.65463121 4.54540142 44.32189138 4.29756762 47 4 C47.495 4.99 47.495 4.99 48 6 C48.33 5.67 48.66 5.34 49 5 C50.66617115 4.95936168 52.33388095 4.957279 54 5 C54 3.68 54 2.36 54 1 C55.65 1 57.3 1 59 1 C59 5.95 59 10.9 59 16 C52.23996656 16.43896321 52.23996656 16.43896321 49 16 C46.9375 13.5625 46.9375 13.5625 46 11 C45.505 10.505 45.505 10.505 45 10 C44.67 11.98 44.34 13.96 44 16 C38.33333333 16 32.66666667 16 27 16 C26.3296875 16.01047363 25.659375 16.02094727 24.96875 16.03173828 C22.3125453 16.07324148 19.65640104 16.09917388 17 16.125 C16.071875 16.14175781 15.14375 16.15851563 14.1875 16.17578125 C13.300625 16.18222656 12.41375 16.18867187 11.5 16.1953125 C10.6853125 16.20578613 9.870625 16.21625977 9.03125 16.22705078 C7 16 7 16 5 14 C4.67 14.66 4.34 15.32 4 16 C2.37536158 16.05395478 0.75021459 16.09277195 -0.875 16.125 C-2.23238281 16.15980469 -2.23238281 16.15980469 -3.6171875 16.1953125 C-6 16 -6 16 -8 14 C-8.33 14.66 -8.66 15.32 -9 16 C-10.65 16 -12.3 16 -14 16 C-14 11.38 -14 6.76 -14 2 C-12.39125 1.979375 -10.7825 1.95875 -9.125 1.9375 C-8.22007813 1.92589844 -7.31515625 1.91429688 -6.3828125 1.90234375 C-4 2 -4 2 -2 3 C-1.34 2.01 -0.68 1.02 0 0 Z M-9 6 C-9 6.66 -9 7.32 -9 8 C-8.01 7.67 -7.02 7.34 -6 7 C-6.99 6.67 -7.98 6.34 -9 6 Z M-2 9 C-2.33 9.99 -2.66 10.98 -3 12 C-2.34 12.66 -1.68 13.32 -1 14 C-1 12.35 -1 10.7 -1 9 C-1.33 9 -1.66 9 -2 9 Z M9 9 C9.33 9.99 9.66 10.98 10 12 C11.65 11.67 13.3 11.34 15 11 C14.67 10.34 14.34 9.68 14 9 C12.35 9 10.7 9 9 9 Z M52 9 C52 9.99 52 10.98 52 12 C52.66 12 53.32 12 54 12 C54 11.01 54 10.02 54 9 C53.34 9 52.68 9 52 9 Z " fill="#FFFFFF" transform="translate(125,111)"/>
<path d="M0 0 C1.32 0 2.64 0 4 0 C4 0.99 4 1.98 4 3 C5.60681641 2.98259766 5.60681641 2.98259766 7.24609375 2.96484375 C8.64322743 2.95546701 10.04036299 2.94636669 11.4375 2.9375 C12.14455078 2.92912109 12.85160156 2.92074219 13.58007812 2.91210938 C15.38693559 2.90346412 17.19387603 2.94779989 19 3 C20 4 20 4 20.125 7.5 C20 11 20 11 19 12 C17.58429877 12.08651611 16.164405 12.10704904 14.74609375 12.09765625 C13.89208984 12.09443359 13.03808594 12.09121094 12.15820312 12.08789062 C11.26037109 12.07951172 10.36253906 12.07113281 9.4375 12.0625 C8.53580078 12.05798828 7.63410156 12.05347656 6.70507812 12.04882812 C4.46998686 12.03700225 2.23502563 12.0205222 0 12 C-0.33 11.01 -0.66 10.02 -1 9 C-2.32 9.33 -3.64 9.66 -5 10 C-5 10.66 -5 11.32 -5 12 C-6.32 12 -7.64 12 -9 12 C-9 8.37 -9 4.74 -9 1 C-3.25 0.875 -3.25 0.875 -1 2 C-0.67 1.34 -0.34 0.68 0 0 Z " fill="#FFFFFF" transform="translate(120,134)"/>
</svg>
