<?xml version="1.0" encoding="UTF-8"?>
<svg version="1.1" xmlns="http://www.w3.org/2000/svg" width="48" height="48">
<path d="M0 0 C15.84 0 31.68 0 48 0 C48 15.84 48 31.68 48 48 C32.16 48 16.32 48 0 48 C0 32.16 0 16.32 0 0 Z " fill="#F3F3F3" transform="translate(0,0)"/>
<path d="M0 0 C15.84 0 31.68 0 48 0 C48 15.84 48 31.68 48 48 C32.16 48 16.32 48 0 48 C0 32.16 0 16.32 0 0 Z M3 14 C2.28202675 16.20584074 2.28202675 16.20584074 2.40625 18.46875 C2.40882812 19.28730469 2.41140625 20.10585938 2.4140625 20.94921875 C2.44242187 21.79097656 2.47078125 22.63273437 2.5 23.5 C2.49742188 24.34175781 2.49484375 25.18351562 2.4921875 26.05078125 C2.5671487 30.81081758 2.89201412 34.16072332 6 38 C10.48804474 40.24402237 16.55894622 39.30988449 21.5480957 39.35009766 C23.05248501 39.36664188 24.5567962 39.39391251 26.06079102 39.43212891 C28.23495041 39.48706208 30.40727022 39.5087937 32.58203125 39.5234375 C34.53459839 39.5531665 34.53459839 39.5531665 36.52661133 39.58349609 C40.91080198 38.84699397 42.35266834 37.51671152 45 34 C45.74969294 31.69840484 45.74969294 31.69840484 45.6640625 29.3125 C45.67050781 28.44882812 45.67695312 27.58515625 45.68359375 26.6953125 C45.66425781 25.80585938 45.64492188 24.91640625 45.625 24 C45.64433594 23.11054688 45.66367187 22.22109375 45.68359375 21.3046875 C45.67392578 20.00917969 45.67392578 20.00917969 45.6640625 18.6875 C45.65842285 17.90761719 45.6527832 17.12773437 45.64697266 16.32421875 C44.6506708 12.74505133 42.91294898 11.24654665 40 9 C36.51872864 8.23536891 36.51872864 8.23536891 32.6875 8.3359375 C31.99615967 8.33115387 31.30481934 8.32637024 30.5925293 8.32144165 C29.13685824 8.31805264 27.68111004 8.3271855 26.22558594 8.34814453 C24.00542503 8.37493454 21.79031739 8.34837353 19.5703125 8.31640625 C18.15103058 8.31971054 16.73175179 8.32611719 15.3125 8.3359375 C14.02988281 8.34157715 12.74726563 8.3472168 11.42578125 8.35302734 C7.11462638 9.16720639 5.62919549 10.5394603 3 14 Z " fill="#212121" transform="translate(0,0)"/>
<path d="M0 0 C3.3 1.65 6.6 3.3 10 5 C7.43833199 7.56166801 6.44696024 8.44554406 3.3125 9.6875 C2.219375 10.120625 1.12625 10.55375 0 11 C0 7.37 0 3.74 0 0 Z " fill="#282828" transform="translate(20,18)"/>
</svg>
